<svg xmlns="http://www.w3.org/2000/svg" width="256" height="50" viewBox="0 0 256 50"><g transform="translate(-360 -20)"><g transform="translate(360 20)"><path d="M304.286-79.4v-9.744c0-3.295-2.4-5.491-7.132-5.491-.249,0-.494.009-.734.024-4.1.236-6.715,2.472-6.906,5.809h3.012c.273-2.256,2.176-2.984,3.894-3.13.24-.017.474-.025.7-.025,2.981,0,4.318,1.064,4.318,2.47,0,1.327-1.249,2.106-5.019,2.361-.227.017-.456.027-.7.044-4.559.237-7.2,1.882-7.2,5.521,0,3.807,3.255,5.457,6.887,5.457.348,0,.684-.016,1.013-.043a7.085,7.085,0,0,0,5.052-2.393,5.467,5.467,0,0,0,.446,2.025H304.8a9.333,9.333,0,0,1-.514-2.884M301.44-83.31c-.061,2.865-2.369,4.209-5.019,4.452-.3.029-.6.038-.908.038-2.265,0-4.116-.822-4.116-2.745,0-1.473.858-2.81,4.7-3.052l.326-.019c1.975-.145,3.917-.413,5.019-1.386Z" transform="translate(-48.8 112.451)" fill="#22282d"/><path d="M171.036-91.955a5.677,5.677,0,0,1,5.1,3.221h3.121a8.435,8.435,0,0,0-8.224-5.9,9.1,9.1,0,0,0-8.841,9.3,9.043,9.043,0,0,0,8.841,9.23,8.4,8.4,0,0,0,8.224-5.9H176.14a5.6,5.6,0,0,1-5.1,3.228c-3.256,0-5.933-2.918-5.933-6.558s2.676-6.619,5.933-6.619" transform="translate(17.824 112.451)" fill="#22282d"/><path d="M268.818-91.042v-2.642H255.142v2.777h9.873L254.871-78.452v2.438h14.254V-78.83H258.778Z" transform="translate(-31.053 111.95)" fill="#22282d"/><rect width="3.427" height="3.529" transform="translate(174.873 32.4)" fill="#22282d"/><path d="M210.754-94.633h-.018a9.052,9.052,0,0,0-8.872,9.334,8.977,8.977,0,0,0,8.872,9.193h.018a8.953,8.953,0,0,0,8.859-9.193,9.032,9.032,0,0,0-8.859-9.334m0,15.852-.018,0c-3.252,0-5.93-2.918-5.93-6.521,0-3.673,2.678-6.655,5.93-6.655h.018c3.281.008,5.949,2.988,5.949,6.655a6.266,6.266,0,0,1-5.949,6.518" transform="translate(-3.098 112.45)" fill="#22282d"/><rect width="3.431" height="3.529" transform="translate(218.262 32.4)" fill="#22282d"/><path d="M-81.5-99.762a7.6,7.6,0,0,0-5.962-3.121l-.033,0a8.973,8.973,0,0,0-8.844,9.3,8.946,8.946,0,0,0,8.844,9.266h.033a7.561,7.561,0,0,0,6.07-3.3v2.851h2.807v-25.528H-81.5ZM-87.462-87l-.033,0c-3.323,0-5.93-2.951-5.93-6.553,0-3.673,2.607-6.623,5.93-6.623h.033c3.243.02,5.962,2.963,5.962,6.623,0,3.589-2.722,6.531-5.962,6.549" transform="translate(154.175 120.703)" fill="#22282d"/><path d="M-43.133-94.631l-.018,0A9.052,9.052,0,0,0-52.026-85.3a8.976,8.976,0,0,0,8.875,9.193h.018A8.953,8.953,0,0,0-34.274-85.3a9.03,9.03,0,0,0-8.859-9.332m0,15.85-.018,0c-3.254,0-5.927-2.918-5.927-6.521,0-3.673,2.674-6.655,5.927-6.655h.018c3.283.01,5.946,2.988,5.946,6.655a6.264,6.264,0,0,1-5.946,6.518" transform="translate(130.804 112.45)" fill="#22282d"/><path d="M60.669-82.85a4.49,4.49,0,0,1-4.592,4.6c-2.808,0-4.351-1.853-4.351-4.667V-93.688H48.848v10.633c0,4.359,2.465,7.445,6.783,7.445a6.531,6.531,0,0,0,5.141-2.333v1.924h2.811V-93.692H60.669Z" transform="translate(77.602 111.955)" fill="#22282d"/><path d="M-6.426-86.67v-8.438h4.01v-2.78h-4.01v-3.774H-9.307v3.774H-11.7v2.78h2.392v8.438c0,4.492,2.849,6.93,6.96,6.452V-82.9c-2.157.137-4.079-.652-4.079-3.774" transform="translate(109.535 116.154)" fill="#22282d"/><path d="M92.34-92.2v-1.99H89.533v17.669h2.911V-86.751c0-3.532,2.607-5.146,5.654-4.971v-2.884a6.246,6.246,0,0,0-5.758,2.4" transform="translate(56.146 112.458)" fill="#22282d"/><path d="M18.9-87.224c-3.461-.546-4.455-.995-4.455-2.261,0-1.372,1.681-2.471,4.01-2.471,2.157,0,3.837.962,4.249,2.847h2.948c-.376-3.465-3.119-5.525-7.2-5.525-4.732,0-6.923,2.711-6.923,5.252,0,3.326,2.6,4.355,6.886,4.973,4.321.585,4.8,1.512,4.8,2.745,0,1.544-1.678,2.885-4.418,2.885-2.538,0-4.562-1.275-4.937-3.333H10.916c.481,3.743,3.6,6.04,7.885,6.04,4.213,0,7.23-2.23,7.23-5.764,0-4.013-3.219-4.769-7.129-5.388" transform="translate(97.608 112.451)" fill="#22282d"/><path d="M-44.35-38.284a3.739,3.739,0,0,1-2.718,1.076,3.736,3.736,0,0,1-2.718-1.076,3.593,3.593,0,0,1-1.1-2.679,3.6,3.6,0,0,1,1.1-2.68,3.735,3.735,0,0,1,2.718-1.074,3.738,3.738,0,0,1,2.718,1.074,3.6,3.6,0,0,1,1.1,2.68,3.593,3.593,0,0,1-1.1,2.679m-.9-4.544a2.431,2.431,0,0,0-1.82-.768,2.436,2.436,0,0,0-1.821.768,2.587,2.587,0,0,0-.742,1.864A2.587,2.587,0,0,0-48.89-39.1a2.436,2.436,0,0,0,1.821.768,2.431,2.431,0,0,0,1.82-.768,2.581,2.581,0,0,0,.742-1.864,2.581,2.581,0,0,0-.742-1.864" transform="translate(130.201 86.149)" fill="#22282d"/><path d="M-31.2-38.238v2.992h-1.161v-5.526H-31.2v1.008a2.069,2.069,0,0,1,.773-.8,2.064,2.064,0,0,1,1.065-.291,2.048,2.048,0,0,1,1.507.572,2.221,2.221,0,0,1,.578,1.65v3.387h-1.164v-3.033q0-1.527-1.265-1.527a1.517,1.517,0,0,0-1.047.4,1.482,1.482,0,0,0-.447,1.168" transform="translate(120.431 84.114)" fill="#22282d"/><rect width="1.161" height="7.707" transform="translate(94.568 41.16)" fill="#22282d"/><path d="M-13.131-44.405a.706.706,0,0,1-.219-.519.71.71,0,0,1,.219-.519.71.71,0,0,1,.519-.218.707.707,0,0,1,.517.218.711.711,0,0,1,.219.519.706.706,0,0,1-.219.519.708.708,0,0,1-.517.218.71.71,0,0,1-.519-.218m1.089,6.626H-13.2v-5.526h1.162Z" transform="translate(110.406 86.648)" fill="#22282d"/><path d="M-6.3-38.238v2.992H-7.466v-5.526H-6.3v1.008a2.066,2.066,0,0,1,.774-.8,2.055,2.055,0,0,1,1.063-.291,2.044,2.044,0,0,1,1.508.572,2.215,2.215,0,0,1,.578,1.65v3.387H-3.546v-3.033q0-1.527-1.263-1.527a1.522,1.522,0,0,0-1.049.4A1.488,1.488,0,0,0-6.3-38.238" transform="translate(107.303 84.114)" fill="#22282d"/><path d="M11.018-37.5H6.692a1.257,1.257,0,0,0,.551.971,1.921,1.921,0,0,0,1.16.369,1.925,1.925,0,0,0,1.577-.655l.665.727a3.081,3.081,0,0,1-2.325.924,2.767,2.767,0,0,1-1.975-.773,2.734,2.734,0,0,1-.813-2.077,2.693,2.693,0,0,1,.829-2.073,2.794,2.794,0,0,1,1.958-.768,2.835,2.835,0,0,1,1.914.679,2.35,2.35,0,0,1,.787,1.875Zm-4.326-.914H9.857a1.332,1.332,0,0,0-.437-1.07,1.59,1.59,0,0,0-1.074-.374,1.841,1.841,0,0,0-1.147.39,1.259,1.259,0,0,0-.509,1.054" transform="translate(100.448 84.114)" fill="#22282d"/><rect width="1.225" height="7.26" transform="translate(115.337 41.608)" fill="#22282d"/><path d="M32.444-38.238v2.992H31.282v-5.526h1.162v1.008a2.066,2.066,0,0,1,.774-.8,2.058,2.058,0,0,1,1.063-.291,2.049,2.049,0,0,1,1.509.572,2.221,2.221,0,0,1,.577,1.65v3.387H35.2v-3.033q0-1.527-1.265-1.527a1.522,1.522,0,0,0-1.049.4,1.488,1.488,0,0,0-.446,1.168" transform="translate(86.867 84.114)" fill="#22282d"/><path d="M48.4-36.9a1.553,1.553,0,0,1-.569,1.262,2.223,2.223,0,0,1-1.465.473,3.929,3.929,0,0,1-1.25-.218,3.793,3.793,0,0,1-1.147-.613l.56-.9a3.131,3.131,0,0,0,1.869.727.963.963,0,0,0,.621-.182.565.565,0,0,0,.229-.462q0-.415-1.1-.747c-.057-.02-.1-.035-.124-.043Q44.3-38.072,44.3-39.162a1.473,1.473,0,0,1,.6-1.231,2.453,2.453,0,0,1,1.551-.463,3.227,3.227,0,0,1,1.8.562l-.438.862a2.6,2.6,0,0,0-1.463-.446,1.335,1.335,0,0,0-.674.15.491.491,0,0,0-.259.453.411.411,0,0,0,.27.394,2.524,2.524,0,0,0,.522.177c.227.055.424.11.6.165s.34.118.5.187a3.363,3.363,0,0,1,.524.291A1.3,1.3,0,0,1,48.4-36.9" transform="translate(80.176 84.115)" fill="#22282d"/><path d="M59.48-37.689v-2.992H60.64v5.526H59.48v-1.008a2.073,2.073,0,0,1-.774.8,2.058,2.058,0,0,1-1.063.291,2.048,2.048,0,0,1-1.509-.572,2.221,2.221,0,0,1-.578-1.65v-3.387h1.165v3.033q0,1.527,1.264,1.527a1.515,1.515,0,0,0,1.045-.4,1.478,1.478,0,0,0,.449-1.168" transform="translate(74.065 84.023)" fill="#22282d"/><path d="M72.325-39.681a1.546,1.546,0,0,0-1.3.561,2.4,2.4,0,0,0-.435,1.506v2.367H69.43v-5.524h1.162v1.11a2.406,2.406,0,0,1,.762-.851,1.835,1.835,0,0,1,1.022-.343l.01,1.173Z" transform="translate(66.748 84.114)" fill="#22282d"/><path d="M81.608-35.246H80.551v-.738a2.269,2.269,0,0,1-1.837.819,2.1,2.1,0,0,1-1.426-.487,1.636,1.636,0,0,1-.564-1.3,1.368,1.368,0,0,1,.6-1.22,2.883,2.883,0,0,1,1.629-.405h1.507v-.208c0-.733-.411-1.1-1.224-1.1a2.855,2.855,0,0,0-1.6.562l-.522-.727a3.581,3.581,0,0,1,2.285-.8,2.479,2.479,0,0,1,1.592.493,1.871,1.871,0,0,1,.615,1.553ZM80.447-37.3v-.468H79.139q-1.255,0-1.254.79a.7.7,0,0,0,.311.618,1.513,1.513,0,0,0,.866.213,1.583,1.583,0,0,0,.972-.312,1,1,0,0,0,.413-.841" transform="translate(62.901 84.114)" fill="#22282d"/><path d="M91.21-38.238v2.992H90.049v-5.526H91.21v1.008a2.073,2.073,0,0,1,.774-.8,2.056,2.056,0,0,1,1.065-.291,2.043,2.043,0,0,1,1.506.572,2.221,2.221,0,0,1,.578,1.65v3.387H93.969v-3.033q0-1.527-1.266-1.527a1.515,1.515,0,0,0-1.046.4,1.48,1.48,0,0,0-.447,1.168" transform="translate(55.873 84.114)" fill="#22282d"/><path d="M105.831-35.164a2.789,2.789,0,0,1-1.982-.783A2.693,2.693,0,0,1,103.02-38a2.667,2.667,0,0,1,.865-2.062A3.015,3.015,0,0,1,106-40.855a2.864,2.864,0,0,1,2.1.862l-.684.841a2.2,2.2,0,0,0-1.442-.623,1.818,1.818,0,0,0-1.26.484,1.611,1.611,0,0,0-.534,1.246,1.769,1.769,0,0,0,.529,1.293,1.772,1.772,0,0,0,1.3.529,2.018,2.018,0,0,0,1.455-.706l.685.747a3.169,3.169,0,0,1-2.324,1.018" transform="translate(49.032 84.114)" fill="#22282d"/><path d="M120.735-37.5h-4.326a1.253,1.253,0,0,0,.551.971,1.919,1.919,0,0,0,1.16.369,1.927,1.927,0,0,0,1.577-.655l.664.727a3.08,3.08,0,0,1-2.324.924,2.763,2.763,0,0,1-1.975-.773,2.736,2.736,0,0,1-.813-2.077,2.7,2.7,0,0,1,.828-2.073,2.8,2.8,0,0,1,1.959-.768,2.836,2.836,0,0,1,1.914.679,2.349,2.349,0,0,1,.787,1.875Zm-4.326-.914h3.165a1.335,1.335,0,0,0-.438-1.07,1.591,1.591,0,0,0-1.074-.374,1.842,1.842,0,0,0-1.147.39,1.258,1.258,0,0,0-.507,1.054" transform="translate(42.583 84.114)" fill="#22282d"/><path d="M129.012-30.778a.766.766,0,0,1-.224-.55.747.747,0,0,1,.224-.545.738.738,0,0,1,.546-.224.753.753,0,0,1,.548.224.727.727,0,0,1,.228.545.745.745,0,0,1-.228.55.745.745,0,0,1-.548.228.731.731,0,0,1-.546-.228" transform="translate(35.442 79.5)" fill="#22282d"/><path d="M118.661-78.746l-.2-.008a6.21,6.21,0,0,1-5.9-5.826H127.4c.033-6.277-4.35-10.054-8.912-10.054l-.033,0a9.108,9.108,0,0,0-8.841,9.294,9.039,9.039,0,0,0,8.841,9.228h.2a8.239,8.239,0,0,0,8.333-5.9h-3.085a5.44,5.44,0,0,1-5.248,3.26m-.2-13.241h.033a6.074,6.074,0,0,1,5.693,4.8H112.733a6.143,6.143,0,0,1,5.726-4.8" transform="translate(45.552 112.45)" fill="#ff8700"/><path d="M-173.514-113.188a12.672,12.672,0,0,0,4.022-.646c3.025-1.043,5.356-2.3,5.506-4.378.311-4.22-4.633-5.582-9.528-5.465a24.447,24.447,0,0,0-4.954.619c-2.01.475-4.366-2.948-7.548-5.643s-10.039-5.375-11.97-2.053,10.167,7.243,13.846,7.9c3.411.613,1.872,1.571-.67,1.386a73.53,73.53,0,0,0-8.24,0c-2.564.128-12.894.828-12.245,4.693s7.326,1.169,12.058-.427a22.12,22.12,0,0,1,8.258-1.44c1.6.056,1.736,2.359-.243,2.17a40.424,40.424,0,0,0-13.3,1.371c-5.328,1.471-9.084,4.311-10.793,7.531a4.227,4.227,0,0,0-1.019.123,3.528,3.528,0,0,0-2.749,4.155,3.6,3.6,0,0,0,3.285,2.58,5.007,5.007,0,0,0-.263,2.38,4.254,4.254,0,0,0-3.3,1.083,14.284,14.284,0,0,0-2.9,2.916c-2.139,2.839-3.3,6.331-1.742,7.5a2.29,2.29,0,0,0,2.3.057c-.288,2.29.127,4.079,1.167,4.419a1.507,1.507,0,0,0,1.173-.168c1.246-.659,2.625-2.687,3.473-5.309,1.371-.563,7.717-2.011,10.13-6.845,3.784.258,7.367-.658,11.851-2.726,3.07-1.412,6.281-3.32,8.078-5.305,1.174-1.379,4.35-.037,4.938.045a12.351,12.351,0,0,0,1.376.114c2.52.052,4.509-.772,4.69-2.059.2-1.408-1.9-2.266-4.69-2.821l-.669-.124a11.645,11.645,0,0,0-1.964-.175c.334-1.267-.634-3.687-.254-4.815.8-.707,1.628-.635,2.888-.648m-37.005,18.207c-.843-.2-1.893.55-2.838,1.907a13.831,13.831,0,0,0-1.721,3.579c-.088.271-.166.535-.237.8-1,.654-1.669.731-1.77.658-.186-.137-.384-2.152,2.043-5.374a13.869,13.869,0,0,1,1.685-1.89c1.555-1.43,2.721-1.675,2.9-1.559a1.2,1.2,0,0,0,.806.208c.44,1.516-.407,1.818-.867,1.671m33.679-26.288c-.035-.666,1.426-1.278,3.263-1.37l.063-.006c1.81-.082,3.294.374,3.327,1.023s-1.426,1.276-3.263,1.373l-.064,0c-1.81.083-3.295-.37-3.326-1.023" transform="translate(218.714 132.295)" fill="#ff8700"/><path d="M146.186-44.346h1.225v7.26h-1.328l-4.108-5.3v5.3H140.75v-7.26h1.225l4.212,5.422Z" transform="translate(29.134 85.953)" fill="#ff8700"/><path d="M162.324-35.246h-1.058v-.738a2.268,2.268,0,0,1-1.837.819A2.1,2.1,0,0,1,158-35.651a1.636,1.636,0,0,1-.564-1.3,1.368,1.368,0,0,1,.6-1.22,2.88,2.88,0,0,1,1.629-.405h1.505v-.208c0-.733-.41-1.1-1.223-1.1a2.855,2.855,0,0,0-1.6.562l-.522-.727a3.581,3.581,0,0,1,2.286-.8,2.479,2.479,0,0,1,1.592.493,1.871,1.871,0,0,1,.615,1.553ZM161.163-37.3v-.468h-1.308q-1.255,0-1.254.79a.7.7,0,0,0,.311.618,1.513,1.513,0,0,0,.866.213,1.583,1.583,0,0,0,.972-.312,1,1,0,0,0,.413-.841" transform="translate(20.332 84.114)" fill="#ff8700"/><path d="M171.924-38.238v2.992h-1.162v-5.526h1.162v1.008a1.835,1.835,0,0,1,.752-.8,2.141,2.141,0,0,1,1.087-.291,1.754,1.754,0,0,1,1.771,1.08,2.476,2.476,0,0,1,2.044-1.08,2.054,2.054,0,0,1,1.51.572,2.216,2.216,0,0,1,.575,1.65v3.387H178.5v-3.033q0-1.527-1.268-1.527a1.533,1.533,0,0,0-1.031.379,1.433,1.433,0,0,0-.462,1.106v3.075H174.58v-3.033a1.912,1.912,0,0,0-.281-1.158,1.033,1.033,0,0,0-.881-.369,1.515,1.515,0,0,0-1.046.4,1.48,1.48,0,0,0-.447,1.168" transform="translate(13.305 84.114)" fill="#ff8700"/><path d="M197.325-37.5H193a1.253,1.253,0,0,0,.551.971,1.918,1.918,0,0,0,1.16.369,1.927,1.927,0,0,0,1.577-.655l.664.727a3.078,3.078,0,0,1-2.324.924,2.762,2.762,0,0,1-1.975-.773,2.734,2.734,0,0,1-.813-2.077,2.7,2.7,0,0,1,.827-2.073,2.8,2.8,0,0,1,1.959-.768,2.838,2.838,0,0,1,1.914.679,2.351,2.351,0,0,1,.787,1.875ZM193-38.414h3.165a1.335,1.335,0,0,0-.437-1.07,1.592,1.592,0,0,0-1.075-.374,1.842,1.842,0,0,0-1.147.39A1.263,1.263,0,0,0,193-38.414" transform="translate(2.19 84.114)" fill="#ff8700"/><path d="M213.272-37.086h-1.245v-2.866l-2.7-4.394h1.338l1.983,3.3,1.981-3.3h1.336l-2.7,4.394Z" transform="translate(-7.035 85.953)" fill="#ff8700"/><path d="M227.436-35.989a2.827,2.827,0,0,1-2.074.826,2.827,2.827,0,0,1-2.078-.826,2.746,2.746,0,0,1-.83-2.02,2.75,2.75,0,0,1,.83-2.021,2.827,2.827,0,0,1,2.078-.826,2.827,2.827,0,0,1,2.074.826,2.747,2.747,0,0,1,.829,2.021,2.743,2.743,0,0,1-.829,2.02m-3.327-.717a1.679,1.679,0,0,0,1.253.5,1.675,1.675,0,0,0,1.248-.5,1.782,1.782,0,0,0,.493-1.3,1.784,1.784,0,0,0-.493-1.3,1.675,1.675,0,0,0-1.248-.5,1.679,1.679,0,0,0-1.253.5,1.79,1.79,0,0,0-.493,1.3,1.788,1.788,0,0,0,.493,1.3" transform="translate(-13.957 84.114)" fill="#ff8700"/><path d="M240.886-37.689v-2.992h1.162v5.526h-1.162v-1.008a2.066,2.066,0,0,1-.774.8,2.055,2.055,0,0,1-1.063.291,2.042,2.042,0,0,1-1.508-.572,2.215,2.215,0,0,1-.578-1.65v-3.387h1.165v3.033q0,1.527,1.264,1.527a1.518,1.518,0,0,0,1.047-.4,1.479,1.479,0,0,0,.447-1.168" transform="translate(-21.608 84.023)" fill="#ff8700"/><path d="M253.732-39.681a1.546,1.546,0,0,0-1.3.561A2.4,2.4,0,0,0,252-37.614v2.367h-1.162v-5.524H252v1.11a2.407,2.407,0,0,1,.762-.851,1.835,1.835,0,0,1,1.022-.343l.01,1.173Z" transform="translate(-28.927 84.114)" fill="#ff8700"/><path d="M269.939-43.714a2.414,2.414,0,0,1,.757,1.953,2.316,2.316,0,0,1-.775,1.931,3.778,3.778,0,0,1-2.371.613h-1.284v2.13h-1.226v-7.261h2.492a3.738,3.738,0,0,1,2.407.633m-.869,3a1.6,1.6,0,0,0,.369-1.143,1.19,1.19,0,0,0-.465-1.064,2.7,2.7,0,0,0-1.466-.312h-1.242v2.909h1.419a1.89,1.89,0,0,0,1.385-.39" transform="translate(-36.418 85.954)" fill="#ff8700"/><path d="M282.161-39.681a1.546,1.546,0,0,0-1.3.561,2.4,2.4,0,0,0-.435,1.506v2.367h-1.162v-5.524h1.162v1.11a2.406,2.406,0,0,1,.762-.851,1.834,1.834,0,0,1,1.022-.343l.012,1.173Z" transform="translate(-43.92 84.114)" fill="#ff8700"/><path d="M287.452-44.405a.709.709,0,0,1-.216-.519.713.713,0,0,1,.216-.519.713.713,0,0,1,.519-.218.708.708,0,0,1,.519.218.715.715,0,0,1,.218.519.71.71,0,0,1-.218.519.709.709,0,0,1-.519.218.713.713,0,0,1-.519-.218m1.09,6.626h-1.161v-5.526h1.161Z" transform="translate(-48.123 86.648)" fill="#ff8700"/><path d="M295.16-35.164a2.79,2.79,0,0,1-1.982-.783A2.693,2.693,0,0,1,292.349-38a2.667,2.667,0,0,1,.865-2.062,3.015,3.015,0,0,1,2.112-.794,2.864,2.864,0,0,1,2.1.862l-.684.841a2.2,2.2,0,0,0-1.442-.623,1.818,1.818,0,0,0-1.26.484,1.611,1.611,0,0,0-.534,1.246,1.767,1.767,0,0,0,.529,1.293,1.773,1.773,0,0,0,1.3.529,2.022,2.022,0,0,0,1.455-.706l.685.747a3.169,3.169,0,0,1-2.324,1.018" transform="translate(-50.819 84.114)" fill="#ff8700"/><path d="M310.065-37.5h-4.326a1.251,1.251,0,0,0,.551.971,1.92,1.92,0,0,0,1.161.369,1.926,1.926,0,0,0,1.577-.655l.664.727a3.079,3.079,0,0,1-2.324.924,2.764,2.764,0,0,1-1.975-.773,2.734,2.734,0,0,1-.813-2.077,2.7,2.7,0,0,1,.828-2.073,2.8,2.8,0,0,1,1.958-.768,2.837,2.837,0,0,1,1.914.679,2.351,2.351,0,0,1,.787,1.875Zm-4.326-.914H308.9a1.334,1.334,0,0,0-.438-1.07,1.591,1.591,0,0,0-1.075-.374,1.841,1.841,0,0,0-1.146.39,1.259,1.259,0,0,0-.507,1.054" transform="translate(-57.269 84.114)" fill="#ff8700"/><path d="M319.069-37.2a.747.747,0,0,1-.544-.229.737.737,0,0,1-.227-.546.736.736,0,0,1,.227-.545.741.741,0,0,1,.544-.229.743.743,0,0,1,.544.229.746.746,0,0,1,.229.545.747.747,0,0,1-.229.546.749.749,0,0,1-.544.229m-.732-7.52h1.454v1.34l-.311,3.749h-.831l-.311-3.749Z" transform="translate(-64.505 86.15)" fill="#ff8700"/></g></g></svg>